<svg width="20" height="21" viewBox="0 0 20 21" fill="none" xmlns="http://www.w3.org/2000/svg">
<path d="M18.04 5.31969L12.28 1.28969C10.71 0.189694 8.3 0.249694 6.79 1.41969L1.78 5.32969C0.78 6.10969 -0.0100002 7.70969 -0.0100002 8.96969V15.8697C-0.0100002 18.4197 2.06 20.4997 4.61 20.4997H15.39C17.94 20.4997 20.01 18.4297 20.01 15.8797V9.09969C20.01 7.74969 19.14 6.08969 18.04 5.31969ZM10.75 16.4997C10.75 16.9097 10.41 17.2497 10 17.2497C9.59 17.2497 9.25 16.9097 9.25 16.4997V13.4997C9.25 13.0897 9.59 12.7497 10 12.7497C10.41 12.7497 10.75 13.0897 10.75 13.4997V16.4997Z" fill="#21D4B4"/>
</svg>
