<svg width="25" height="25" viewBox="0 0 25 25" fill="none" xmlns="http://www.w3.org/2000/svg">
<path d="M12.75 22.1496C12.44 22.1496 12.14 22.1096 11.89 22.0196C8.07 20.7096 2 16.0596 2 9.18961C2 5.68961 4.83 2.84961 8.31 2.84961C10 2.84961 11.58 3.50961 12.75 4.68961C13.92 3.50961 15.5 2.84961 17.19 2.84961C20.67 2.84961 23.5 5.69961 23.5 9.18961C23.5 16.0696 17.43 20.7096 13.61 22.0196C13.36 22.1096 13.06 22.1496 12.75 22.1496ZM8.31 4.34961C5.66 4.34961 3.5 6.51961 3.5 9.18961C3.5 16.0196 10.07 19.8196 12.38 20.6096C12.56 20.6696 12.95 20.6696 13.13 20.6096C15.43 19.8196 22.01 16.0296 22.01 9.18961C22.01 6.51961 19.85 4.34961 17.2 4.34961C15.68 4.34961 14.27 5.05961 13.36 6.28961C13.08 6.66961 12.44 6.66961 12.16 6.28961C11.23 5.04961 9.83 4.34961 8.31 4.34961Z" fill="#6F7384"/>
</svg>
